<svg width="170" height="21" fill="none" xmlns="http://www.w3.org/2000/svg"><path d="M10.575 20.943c-1.507 0-2.902-.257-4.185-.771a10.755 10.755 0 0 1-3.377-2.2 10.451 10.451 0 0 1-2.232-3.343C.261 13.352 0 11.97 0 10.486 0 8.98.26 7.6.781 6.343a10.123 10.123 0 0 1 2.232-3.314 10.843 10.843 0 0 1 3.349-2.2c1.283-.534 2.67-.8 4.157-.8 1.563 0 2.967.257 4.213.771a10.277 10.277 0 0 1 3.293 2.086l-3.348 3.428a4.881 4.881 0 0 0-1.73-1.257c-.688-.305-1.498-.457-2.428-.457-.8 0-1.534.133-2.204.4a4.657 4.657 0 0 0-1.702 1.2 5.632 5.632 0 0 0-1.144 1.857c-.26.724-.39 1.534-.39 2.429 0 .895.13 1.704.39 2.428.279.724.66 1.353 1.144 1.886A5.157 5.157 0 0 0 8.315 16c.67.267 1.404.4 2.204.4.93 0 1.749-.143 2.456-.428a5.203 5.203 0 0 0 1.813-1.286l3.349 3.428a10.7 10.7 0 0 1-3.293 2.086c-1.209.495-2.632.743-4.269.743ZM18.354 20.629 26.028.37h4.827l7.59 20.258h-5.219L27.506 3.6h1.814l-5.86 17.029h-5.106ZM40.296 20.629V.37h4.995V20.63h-4.995Zm3.962 0v-4.4h9.543v4.4h-9.543ZM56.128 20.629V.37h4.994V20.63h-4.994ZM64.63 20.629V.37h4.994V20.63h-4.995Zm3.961-7.572V8.743h9.794v4.314h-9.794Zm0-8.371V.37h10.24v4.315h-10.24ZM90.85 21c-1.525 0-2.93-.267-4.213-.8a10.509 10.509 0 0 1-3.377-2.229 10.452 10.452 0 0 1-2.232-3.342c-.54-1.296-.809-2.686-.809-4.172 0-1.486.26-2.857.781-4.114A10.452 10.452 0 0 1 83.233 3 9.83 9.83 0 0 1 86.58.8c1.283-.533 2.688-.8 4.213-.8s2.93.267 4.213.8A9.835 9.835 0 0 1 98.356 3a10.085 10.085 0 0 1 2.204 3.343c.539 1.276.809 2.657.809 4.143 0 1.485-.27 2.866-.809 4.143A10.407 10.407 0 0 1 98.356 18a10.195 10.195 0 0 1-3.349 2.229c-1.265.514-2.65.771-4.157.771Zm-.056-4.571c1.116 0 2.083-.248 2.902-.743.818-.496 1.45-1.19 1.898-2.086.446-.895.67-1.943.67-3.143 0-.876-.131-1.676-.391-2.4a4.973 4.973 0 0 0-1.09-1.857 4.906 4.906 0 0 0-1.729-1.229c-.67-.285-1.423-.428-2.26-.428-1.116 0-2.083.247-2.902.743-.818.476-1.45 1.162-1.897 2.057-.447.895-.67 1.933-.67 3.114 0 .914.121 1.743.363 2.486.26.724.632 1.352 1.116 1.886.484.514 1.06.914 1.73 1.2.67.266 1.423.4 2.26.4ZM107.829 12.429V8.77h3.767c.818 0 1.442-.2 1.869-.6.447-.419.67-.98.67-1.685 0-.686-.223-1.238-.67-1.657-.427-.439-1.051-.658-1.869-.658h-3.767v-3.8h4.465c1.339 0 2.51.258 3.515.772 1.023.514 1.823 1.219 2.4 2.114.577.895.865 1.943.865 3.143 0 1.2-.298 2.257-.893 3.171-.577.896-1.386 1.6-2.428 2.115-1.042.495-2.26.743-3.654.743h-4.27Zm-3.962 8.2V.37h4.995V20.63h-4.995Zm10.715 0-5.748-8.686 4.492-1.114 7.031 9.8h-5.775ZM121.988 20.629V.37h3.487l1.507 4.143V20.63h-4.994Zm13.644 0L124.08 5.6l1.395-5.229 11.58 15.029-1.423 5.229Zm0 0-1.284-4.258v-16h4.995V20.63h-3.711ZM142.859 20.629V.37h4.995V20.63h-4.995ZM149.91 20.629 157.583.37h4.827L170 20.63h-5.217L159.062 3.6h1.814l-5.859 17.029h-5.107Z" fill="#000"/></svg>